G04 Layer: TopSilkscreenLayer*
G04 EasyEDA v6.5.39, 2023-12-20 21:18:59*
G04 2abf5bc968cf43d49ad104ab59b79dd7,7f4f139de444478fbfc4ecf2935d5a69,10*
G04 Gerber Generator version 0.2*
G04 Scale: 100 percent, Rotated: No, Reflected: No *
G04 Dimensions in millimeters *
G04 leading zeros omitted , absolute positions ,4 integer and 5 decimal *
%FSLAX45Y45*%
%MOMM*%

%ADD10C,0.2032*%
%ADD11C,0.4030*%
%ADD12C,0.1000*%
%ADD13C,0.1524*%
%ADD14C,0.2540*%

%LPD*%
D10*
X74421Y419100D02*
G01*
X268223Y419100D01*
X74421Y419100D02*
G01*
X268223Y493013D01*
X74421Y566928D02*
G01*
X268223Y493013D01*
X74421Y566928D02*
G01*
X268223Y566928D01*
X74421Y627887D02*
G01*
X83565Y637031D01*
X74421Y646429D01*
X65023Y637031D01*
X74421Y627887D01*
X138937Y637031D02*
G01*
X268223Y637031D01*
X138937Y707389D02*
G01*
X268223Y707389D01*
X176021Y707389D02*
G01*
X148336Y735076D01*
X138937Y753363D01*
X138937Y781050D01*
X148336Y799592D01*
X176021Y808989D01*
X268223Y808989D01*
X74421Y869950D02*
G01*
X83565Y879094D01*
X74421Y888237D01*
X65023Y879094D01*
X74421Y869950D01*
X138937Y879094D02*
G01*
X268223Y879094D01*
X74421Y1165352D02*
G01*
X268223Y1091437D01*
X74421Y1165352D02*
G01*
X268223Y1239265D01*
X203707Y1119123D02*
G01*
X203707Y1211579D01*
X74421Y1327912D02*
G01*
X231394Y1327912D01*
X259079Y1337310D01*
X268223Y1355597D01*
X268223Y1374139D01*
X138937Y1300226D02*
G01*
X138937Y1364995D01*
X74421Y1462786D02*
G01*
X231394Y1462786D01*
X259079Y1471929D01*
X268223Y1490471D01*
X268223Y1509013D01*
X138937Y1435100D02*
G01*
X138937Y1499870D01*
X194310Y1569973D02*
G01*
X194310Y1680718D01*
X176021Y1680718D01*
X157479Y1671573D01*
X148336Y1662429D01*
X138937Y1643887D01*
X138937Y1616202D01*
X148336Y1597660D01*
X166623Y1579118D01*
X194310Y1569973D01*
X212852Y1569973D01*
X240537Y1579118D01*
X259079Y1597660D01*
X268223Y1616202D01*
X268223Y1643887D01*
X259079Y1662429D01*
X240537Y1680718D01*
X138937Y1741678D02*
G01*
X268223Y1741678D01*
X176021Y1741678D02*
G01*
X148336Y1769363D01*
X138937Y1787905D01*
X138937Y1815592D01*
X148336Y1834134D01*
X176021Y1843278D01*
X268223Y1843278D01*
X138937Y1904237D02*
G01*
X231394Y1904237D01*
X259079Y1913636D01*
X268223Y1931923D01*
X268223Y1959610D01*
X259079Y1978152D01*
X231394Y2005837D01*
X138937Y2005837D02*
G01*
X268223Y2005837D01*
X138937Y2177795D02*
G01*
X268223Y2177795D01*
X166623Y2177795D02*
G01*
X148336Y2159254D01*
X138937Y2140712D01*
X138937Y2113026D01*
X148336Y2094484D01*
X166623Y2076195D01*
X194310Y2066797D01*
X212852Y2066797D01*
X240537Y2076195D01*
X259079Y2094484D01*
X268223Y2113026D01*
X268223Y2140712D01*
X259079Y2159254D01*
X240537Y2177795D01*
X74421Y2266442D02*
G01*
X231394Y2266442D01*
X259079Y2275586D01*
X268223Y2294128D01*
X268223Y2312670D01*
X138937Y2238755D02*
G01*
X138937Y2303271D01*
X138937Y2419604D02*
G01*
X148336Y2401315D01*
X166623Y2382773D01*
X194310Y2373629D01*
X212852Y2373629D01*
X240537Y2382773D01*
X259079Y2401315D01*
X268223Y2419604D01*
X268223Y2447289D01*
X259079Y2465831D01*
X240537Y2484373D01*
X212852Y2493518D01*
X194310Y2493518D01*
X166623Y2484373D01*
X148336Y2465831D01*
X138937Y2447289D01*
X138937Y2419604D01*
X138937Y2554478D02*
G01*
X268223Y2554478D01*
X194310Y2554478D02*
G01*
X166623Y2563876D01*
X148336Y2582163D01*
X138937Y2600705D01*
X138937Y2628392D01*
D11*
X1179829Y1790954D02*
G01*
X1469389Y1790954D01*
X1317752Y1790954D02*
G01*
X1290320Y1763521D01*
X1276350Y1735836D01*
X1276350Y1694434D01*
X1290320Y1667002D01*
X1317752Y1639315D01*
X1359154Y1625600D01*
X1386586Y1625600D01*
X1427987Y1639315D01*
X1455673Y1667002D01*
X1469389Y1694434D01*
X1469389Y1735836D01*
X1455673Y1763521D01*
X1427987Y1790954D01*
X1179829Y1881886D02*
G01*
X1469389Y1881886D01*
X1179829Y1881886D02*
G01*
X1179829Y2006092D01*
X1193800Y2047239D01*
X1207515Y2061210D01*
X1234947Y2074926D01*
X1262634Y2074926D01*
X1290320Y2061210D01*
X1304036Y2047239D01*
X1317752Y2006092D01*
X1317752Y1881886D02*
G01*
X1317752Y2006092D01*
X1331468Y2047239D01*
X1345437Y2061210D01*
X1372870Y2074926D01*
X1414271Y2074926D01*
X1441704Y2061210D01*
X1455673Y2047239D01*
X1469389Y2006092D01*
X1469389Y1881886D01*
D12*
X1391412Y2463800D02*
G01*
X1455165Y2463800D01*
X1418589Y2463800D02*
G01*
X1405128Y2468371D01*
X1395984Y2477515D01*
X1391412Y2486405D01*
X1391412Y2500121D01*
X1418589Y2530094D02*
G01*
X1418589Y2584704D01*
X1409700Y2584704D01*
X1400555Y2580131D01*
X1395984Y2575560D01*
X1391412Y2566415D01*
X1391412Y2552954D01*
X1395984Y2543810D01*
X1405128Y2534665D01*
X1418589Y2530094D01*
X1427734Y2530094D01*
X1441450Y2534665D01*
X1450594Y2543810D01*
X1455165Y2552954D01*
X1455165Y2566415D01*
X1450594Y2575560D01*
X1441450Y2584704D01*
X1391412Y2614676D02*
G01*
X1455165Y2642107D01*
X1391412Y2669286D02*
G01*
X1455165Y2642107D01*
X1432305Y2703829D02*
G01*
X1436878Y2699257D01*
X1441450Y2703829D01*
X1436878Y2708402D01*
X1432305Y2703829D01*
X1391412Y2792984D02*
G01*
X1455165Y2792984D01*
X1405128Y2792984D02*
G01*
X1395984Y2783839D01*
X1391412Y2774695D01*
X1391412Y2760979D01*
X1395984Y2752089D01*
X1405128Y2742945D01*
X1418589Y2738373D01*
X1427734Y2738373D01*
X1441450Y2742945D01*
X1450594Y2752089D01*
X1455165Y2760979D01*
X1455165Y2774695D01*
X1450594Y2783839D01*
X1441450Y2792984D01*
D13*
X685800Y2299715D02*
G01*
X685800Y2190750D01*
X685800Y2299715D02*
G01*
X732536Y2299715D01*
X748029Y2294636D01*
X753363Y2289302D01*
X758444Y2278887D01*
X758444Y2268473D01*
X753363Y2258060D01*
X748029Y2252979D01*
X732536Y2247900D01*
X685800Y2247900D01*
X722121Y2247900D02*
G01*
X758444Y2190750D01*
X792734Y2278887D02*
G01*
X803147Y2284221D01*
X818895Y2299715D01*
X818895Y2190750D01*
X673100Y839215D02*
G01*
X673100Y730250D01*
X673100Y839215D02*
G01*
X719836Y839215D01*
X735329Y834136D01*
X740663Y828802D01*
X745744Y818387D01*
X745744Y807973D01*
X740663Y797560D01*
X735329Y792479D01*
X719836Y787400D01*
X673100Y787400D01*
X709421Y787400D02*
G01*
X745744Y730250D01*
X785368Y813307D02*
G01*
X785368Y818387D01*
X790447Y828802D01*
X795781Y834136D01*
X806195Y839215D01*
X826770Y839215D01*
X837184Y834136D01*
X842518Y828802D01*
X847597Y818387D01*
X847597Y807973D01*
X842518Y797560D01*
X832104Y782065D01*
X780034Y730250D01*
X852931Y730250D01*
X710184Y1409700D02*
G01*
X819150Y1409700D01*
X710184Y1409700D02*
G01*
X710184Y1456436D01*
X715263Y1471929D01*
X720597Y1477263D01*
X731012Y1482344D01*
X741426Y1482344D01*
X751839Y1477263D01*
X756920Y1471929D01*
X762000Y1456436D01*
X762000Y1409700D01*
X762000Y1446021D02*
G01*
X819150Y1482344D01*
X710184Y1527047D02*
G01*
X710184Y1584197D01*
X751839Y1553210D01*
X751839Y1568704D01*
X756920Y1579118D01*
X762000Y1584197D01*
X777747Y1589531D01*
X788162Y1589531D01*
X803655Y1584197D01*
X814070Y1573784D01*
X819150Y1558289D01*
X819150Y1542795D01*
X814070Y1527047D01*
X808989Y1521968D01*
X798576Y1516634D01*
D14*
X508000Y2120900D02*
G01*
X508000Y2374900D01*
X1016000Y2374900D01*
X1016000Y2247900D01*
X1016000Y2120900D01*
X508000Y2120900D01*
X508000Y660400D02*
G01*
X508000Y914400D01*
X1016000Y914400D01*
X1016000Y787400D01*
X1016000Y660400D01*
X508000Y660400D01*
X889000Y1257300D02*
G01*
X635000Y1257300D01*
X635000Y1765300D01*
X762000Y1765300D01*
X889000Y1765300D01*
X889000Y1257300D01*
G36*
X1066800Y1562100D02*
G01*
X1485900Y1562100D01*
X1485900Y939800D01*
X1066800Y939800D01*
G37*
M02*
