G04 Layer: BottomLayer*
G04 EasyEDA v6.5.39, 2023-12-20 21:18:59*
G04 2abf5bc968cf43d49ad104ab59b79dd7,7f4f139de444478fbfc4ecf2935d5a69,10*
G04 Gerber Generator version 0.2*
G04 Scale: 100 percent, Rotated: No, Reflected: No *
G04 Dimensions in millimeters *
G04 leading zeros omitted , absolute positions ,4 integer and 5 decimal *
%FSLAX45Y45*%
%MOMM*%

%ADD10C,0.7620*%
%ADD11R,1.5240X4.0640*%
%ADD12O,1.27X2.032*%
%ADD13O,2.032X1.27*%

%LPD*%
G36*
X254355Y48514D02*
G01*
X234696Y49479D01*
X216052Y52120D01*
X197713Y56489D01*
X179832Y62534D01*
X162610Y70154D01*
X146202Y79349D01*
X130657Y90068D01*
X116179Y102108D01*
X102870Y115468D01*
X90881Y129997D01*
X80264Y145592D01*
X71120Y162052D01*
X63550Y179324D01*
X57607Y197205D01*
X53340Y215595D01*
X50800Y234238D01*
X49885Y253390D01*
X49885Y2791815D01*
X50850Y2811881D01*
X53492Y2830576D01*
X57861Y2848914D01*
X63906Y2866745D01*
X71577Y2883966D01*
X80772Y2900426D01*
X91440Y2915920D01*
X103530Y2930398D01*
X116890Y2943707D01*
X131419Y2955696D01*
X146964Y2966313D01*
X163474Y2975457D01*
X180746Y2983026D01*
X198628Y2988970D01*
X216966Y2993237D01*
X235661Y2995828D01*
X254812Y2996692D01*
X344932Y2996692D01*
X348843Y2995930D01*
X352094Y2993694D01*
X354330Y2990443D01*
X355092Y2986532D01*
X355092Y2927350D01*
X463550Y2927350D01*
X463550Y2986532D01*
X464312Y2990443D01*
X466547Y2993694D01*
X469798Y2995930D01*
X473709Y2996692D01*
X542290Y2996692D01*
X546201Y2995930D01*
X549452Y2993694D01*
X551688Y2990443D01*
X552450Y2986532D01*
X552450Y2927350D01*
X660908Y2927350D01*
X660908Y2986532D01*
X661670Y2990443D01*
X663905Y2993694D01*
X667156Y2995930D01*
X671068Y2996692D01*
X852932Y2996692D01*
X856843Y2995930D01*
X860094Y2993694D01*
X862330Y2990443D01*
X863092Y2986532D01*
X863092Y2927350D01*
X971550Y2927350D01*
X971550Y2986532D01*
X972312Y2990443D01*
X974547Y2993694D01*
X977798Y2995930D01*
X981710Y2996692D01*
X1050290Y2996692D01*
X1054201Y2995930D01*
X1057452Y2993694D01*
X1059688Y2990443D01*
X1060450Y2986532D01*
X1060450Y2927350D01*
X1168908Y2927350D01*
X1168908Y2986532D01*
X1169670Y2990443D01*
X1171905Y2993694D01*
X1175156Y2995930D01*
X1179068Y2996692D01*
X1293672Y2996692D01*
X1313281Y2995726D01*
X1331925Y2993085D01*
X1350264Y2988716D01*
X1368145Y2982671D01*
X1385366Y2975051D01*
X1401826Y2965856D01*
X1417320Y2955137D01*
X1431798Y2943098D01*
X1445107Y2929737D01*
X1457096Y2915208D01*
X1467713Y2899613D01*
X1476857Y2883154D01*
X1484426Y2865882D01*
X1490370Y2848000D01*
X1494637Y2829610D01*
X1497228Y2810967D01*
X1498092Y2791815D01*
X1498092Y253390D01*
X1497126Y233324D01*
X1494485Y214629D01*
X1490116Y196291D01*
X1484071Y178460D01*
X1476451Y161239D01*
X1467205Y144780D01*
X1456537Y129285D01*
X1444447Y114808D01*
X1431086Y101498D01*
X1416608Y89509D01*
X1401013Y78892D01*
X1384503Y69748D01*
X1367282Y62179D01*
X1349400Y56235D01*
X1331010Y51968D01*
X1312367Y49377D01*
X1293164Y48514D01*
X1179068Y48514D01*
X1175156Y49276D01*
X1171905Y51511D01*
X1169670Y54762D01*
X1168908Y58674D01*
X1168908Y120650D01*
X1060450Y120650D01*
X1060450Y58674D01*
X1059688Y54762D01*
X1057452Y51511D01*
X1054201Y49276D01*
X1050290Y48514D01*
X981710Y48514D01*
X977798Y49276D01*
X974547Y51511D01*
X972312Y54762D01*
X971550Y58674D01*
X971550Y120650D01*
X863092Y120650D01*
X863092Y58674D01*
X862330Y54762D01*
X860094Y51511D01*
X856843Y49276D01*
X852932Y48514D01*
X671068Y48514D01*
X667156Y49276D01*
X663905Y51511D01*
X661670Y54762D01*
X660908Y58674D01*
X660908Y120650D01*
X552450Y120650D01*
X552450Y58674D01*
X551688Y54762D01*
X549452Y51511D01*
X546201Y49276D01*
X542290Y48514D01*
X473709Y48514D01*
X469798Y49276D01*
X466547Y51511D01*
X464312Y54762D01*
X463550Y58674D01*
X463550Y120650D01*
X355092Y120650D01*
X355092Y58674D01*
X354330Y54762D01*
X352094Y51511D01*
X348843Y49276D01*
X344932Y48514D01*
G37*

%LPC*%
G36*
X552450Y336550D02*
G01*
X660908Y336550D01*
X660908Y431444D01*
X660095Y442722D01*
X657758Y453390D01*
X653948Y463651D01*
X648716Y473252D01*
X642162Y482041D01*
X634441Y489762D01*
X625652Y496316D01*
X616051Y501548D01*
X605790Y505358D01*
X595122Y507695D01*
X583844Y508508D01*
X552450Y508508D01*
G37*
G36*
X863092Y336550D02*
G01*
X971550Y336550D01*
X971550Y508508D01*
X940155Y508508D01*
X928878Y507695D01*
X918210Y505358D01*
X907948Y501548D01*
X898347Y496316D01*
X889558Y489762D01*
X881837Y482041D01*
X875284Y473252D01*
X870051Y463651D01*
X866241Y453390D01*
X863904Y442722D01*
X863092Y431444D01*
G37*
G36*
X355092Y336550D02*
G01*
X463550Y336550D01*
X463550Y508508D01*
X432155Y508508D01*
X420878Y507695D01*
X410209Y505358D01*
X399948Y501548D01*
X390347Y496316D01*
X381558Y489762D01*
X373837Y482041D01*
X367284Y473252D01*
X362051Y463651D01*
X358241Y453390D01*
X355904Y442722D01*
X355092Y431444D01*
G37*
G36*
X1060450Y336550D02*
G01*
X1168908Y336550D01*
X1168908Y431444D01*
X1168095Y442722D01*
X1165758Y453390D01*
X1161948Y463651D01*
X1156716Y473252D01*
X1150162Y482041D01*
X1142441Y489762D01*
X1133652Y496316D01*
X1124051Y501548D01*
X1113790Y505358D01*
X1103122Y507695D01*
X1091844Y508508D01*
X1060450Y508508D01*
G37*
G36*
X1143000Y609092D02*
G01*
X1158697Y610006D01*
X1174191Y612648D01*
X1189278Y616966D01*
X1203807Y623011D01*
X1217574Y630580D01*
X1230426Y639673D01*
X1242110Y650189D01*
X1252626Y661873D01*
X1261719Y674725D01*
X1269288Y688492D01*
X1275334Y703021D01*
X1279652Y718108D01*
X1282293Y733602D01*
X1283208Y749604D01*
X1283208Y825195D01*
X1282293Y841197D01*
X1279652Y856691D01*
X1275334Y871778D01*
X1269288Y886307D01*
X1261719Y900074D01*
X1252626Y912926D01*
X1242110Y924610D01*
X1230426Y935126D01*
X1217574Y944219D01*
X1203807Y951788D01*
X1189278Y957834D01*
X1174191Y962152D01*
X1158697Y964793D01*
X1143000Y965708D01*
X1132433Y965098D01*
X1128268Y965758D01*
X1124712Y968044D01*
X940206Y1152550D01*
X938377Y1155090D01*
X937361Y1158036D01*
X936752Y1161491D01*
X932434Y1176578D01*
X926388Y1191107D01*
X918819Y1204874D01*
X909726Y1217726D01*
X899210Y1229410D01*
X887526Y1239926D01*
X874674Y1249019D01*
X860907Y1256588D01*
X846378Y1262634D01*
X831291Y1266952D01*
X815797Y1269593D01*
X799795Y1270508D01*
X724204Y1270508D01*
X708202Y1269593D01*
X692708Y1266952D01*
X677621Y1262634D01*
X663092Y1256588D01*
X649325Y1249019D01*
X636473Y1239926D01*
X624789Y1229410D01*
X614273Y1217726D01*
X605180Y1204874D01*
X597611Y1191107D01*
X591566Y1176578D01*
X587248Y1161491D01*
X584606Y1145997D01*
X583692Y1130300D01*
X584606Y1114602D01*
X587248Y1099108D01*
X591566Y1084021D01*
X597611Y1069492D01*
X605180Y1055725D01*
X614273Y1042873D01*
X624789Y1031189D01*
X636473Y1020673D01*
X649325Y1011580D01*
X663092Y1004011D01*
X677621Y997966D01*
X692708Y993648D01*
X708202Y991006D01*
X724204Y990092D01*
X773734Y990092D01*
X777595Y989330D01*
X780897Y987094D01*
X999794Y768197D01*
X1002030Y764895D01*
X1002792Y761034D01*
X1002792Y749604D01*
X1003706Y733602D01*
X1006348Y718108D01*
X1010666Y703021D01*
X1016711Y688492D01*
X1024280Y674725D01*
X1033373Y661873D01*
X1043889Y650189D01*
X1055573Y639673D01*
X1068425Y630580D01*
X1082192Y623011D01*
X1096721Y616966D01*
X1111808Y612648D01*
X1127302Y610006D01*
G37*
G36*
X342900Y614629D02*
G01*
X342900Y730250D01*
X242265Y730250D01*
X244348Y718108D01*
X248666Y703021D01*
X254711Y688492D01*
X262280Y674725D01*
X271373Y661873D01*
X281889Y650189D01*
X293573Y639673D01*
X306425Y630580D01*
X320192Y623011D01*
X334721Y616966D01*
G37*
G36*
X419100Y614629D02*
G01*
X427278Y616966D01*
X441807Y623011D01*
X455574Y630580D01*
X468426Y639673D01*
X480110Y650189D01*
X490626Y661873D01*
X499719Y674725D01*
X507288Y688492D01*
X513334Y703021D01*
X517651Y718108D01*
X519734Y730250D01*
X419100Y730250D01*
G37*
G36*
X242265Y844550D02*
G01*
X342900Y844550D01*
X342900Y960170D01*
X334721Y957834D01*
X320192Y951788D01*
X306425Y944219D01*
X293573Y935126D01*
X281889Y924610D01*
X271373Y912926D01*
X262280Y900074D01*
X254711Y886307D01*
X248666Y871778D01*
X244348Y856691D01*
G37*
G36*
X419100Y844550D02*
G01*
X519734Y844550D01*
X517651Y856691D01*
X513334Y871778D01*
X507288Y886307D01*
X499719Y900074D01*
X490626Y912926D01*
X480110Y924610D01*
X468426Y935126D01*
X455574Y944219D01*
X441807Y951788D01*
X427278Y957834D01*
X419100Y960170D01*
G37*
G36*
X724204Y1752092D02*
G01*
X799795Y1752092D01*
X815797Y1753006D01*
X831291Y1755648D01*
X846378Y1759966D01*
X860907Y1766011D01*
X874674Y1773580D01*
X887526Y1782673D01*
X899210Y1793189D01*
X909726Y1804873D01*
X918819Y1817725D01*
X926388Y1831492D01*
X932434Y1846021D01*
X936752Y1861108D01*
X940358Y1881987D01*
X942492Y1885035D01*
X1124712Y2067255D01*
X1128268Y2069541D01*
X1132433Y2070201D01*
X1143000Y2069592D01*
X1158697Y2070506D01*
X1174191Y2073148D01*
X1189278Y2077466D01*
X1203807Y2083511D01*
X1217574Y2091080D01*
X1230426Y2100173D01*
X1242110Y2110689D01*
X1252626Y2122373D01*
X1261719Y2135225D01*
X1269288Y2148992D01*
X1275334Y2163521D01*
X1279652Y2178608D01*
X1282293Y2194102D01*
X1283208Y2210104D01*
X1283208Y2285695D01*
X1282293Y2301697D01*
X1279652Y2317191D01*
X1275334Y2332278D01*
X1269288Y2346807D01*
X1261719Y2360574D01*
X1252626Y2373426D01*
X1242110Y2385110D01*
X1230426Y2395626D01*
X1217574Y2404719D01*
X1203807Y2412288D01*
X1189278Y2418334D01*
X1174191Y2422652D01*
X1158697Y2425293D01*
X1143000Y2426208D01*
X1127302Y2425293D01*
X1111808Y2422652D01*
X1096721Y2418334D01*
X1082192Y2412288D01*
X1068425Y2404719D01*
X1055573Y2395626D01*
X1043889Y2385110D01*
X1033373Y2373426D01*
X1024280Y2360574D01*
X1016711Y2346807D01*
X1010666Y2332278D01*
X1006348Y2317191D01*
X1003706Y2301697D01*
X1002792Y2285695D01*
X1002792Y2274265D01*
X1002030Y2270404D01*
X999794Y2267102D01*
X768197Y2035505D01*
X764895Y2033270D01*
X761034Y2032507D01*
X724204Y2032507D01*
X708202Y2031593D01*
X692708Y2028952D01*
X677621Y2024634D01*
X663092Y2018588D01*
X649325Y2011019D01*
X636473Y2001926D01*
X624789Y1991410D01*
X614273Y1979726D01*
X605180Y1966874D01*
X597611Y1953107D01*
X591566Y1938578D01*
X587248Y1923491D01*
X584606Y1907997D01*
X583692Y1892300D01*
X584606Y1876602D01*
X587248Y1861108D01*
X591566Y1846021D01*
X597611Y1831492D01*
X605180Y1817725D01*
X614273Y1804873D01*
X624789Y1793189D01*
X636473Y1782673D01*
X649325Y1773580D01*
X663092Y1766011D01*
X677621Y1759966D01*
X692708Y1755648D01*
X708202Y1753006D01*
G37*
G36*
X419100Y2075129D02*
G01*
X427278Y2077466D01*
X441807Y2083511D01*
X455574Y2091080D01*
X468426Y2100173D01*
X480110Y2110689D01*
X490626Y2122373D01*
X499719Y2135225D01*
X507288Y2148992D01*
X513334Y2163521D01*
X517651Y2178608D01*
X519734Y2190750D01*
X419100Y2190750D01*
G37*
G36*
X342900Y2075129D02*
G01*
X342900Y2190750D01*
X242265Y2190750D01*
X244348Y2178608D01*
X248666Y2163521D01*
X254711Y2148992D01*
X262280Y2135225D01*
X271373Y2122373D01*
X281889Y2110689D01*
X293573Y2100173D01*
X306425Y2091080D01*
X320192Y2083511D01*
X334721Y2077466D01*
G37*
G36*
X419100Y2305050D02*
G01*
X519734Y2305050D01*
X517651Y2317191D01*
X513334Y2332278D01*
X507288Y2346807D01*
X499719Y2360574D01*
X490626Y2373426D01*
X480110Y2385110D01*
X468426Y2395626D01*
X455574Y2404719D01*
X441807Y2412288D01*
X427278Y2418334D01*
X419100Y2420670D01*
G37*
G36*
X242265Y2305050D02*
G01*
X342900Y2305050D01*
X342900Y2420670D01*
X334721Y2418334D01*
X320192Y2412288D01*
X306425Y2404719D01*
X293573Y2395626D01*
X281889Y2385110D01*
X271373Y2373426D01*
X262280Y2360574D01*
X254711Y2346807D01*
X248666Y2332278D01*
X244348Y2317191D01*
G37*
G36*
X432155Y2539492D02*
G01*
X463550Y2539492D01*
X463550Y2711450D01*
X355092Y2711450D01*
X355092Y2616555D01*
X355904Y2605278D01*
X358241Y2594610D01*
X362051Y2584348D01*
X367284Y2574747D01*
X373837Y2565958D01*
X381558Y2558237D01*
X390347Y2551684D01*
X399948Y2546451D01*
X410209Y2542641D01*
X420878Y2540304D01*
G37*
G36*
X1060450Y2539492D02*
G01*
X1091844Y2539492D01*
X1103122Y2540304D01*
X1113790Y2542641D01*
X1124051Y2546451D01*
X1133652Y2551684D01*
X1142441Y2558237D01*
X1150162Y2565958D01*
X1156716Y2574747D01*
X1161948Y2584348D01*
X1165758Y2594610D01*
X1168095Y2605278D01*
X1168908Y2616555D01*
X1168908Y2711450D01*
X1060450Y2711450D01*
G37*
G36*
X940155Y2539492D02*
G01*
X971550Y2539492D01*
X971550Y2711450D01*
X863092Y2711450D01*
X863092Y2616555D01*
X863904Y2605278D01*
X866241Y2594610D01*
X870051Y2584348D01*
X875284Y2574747D01*
X881837Y2565958D01*
X889558Y2558237D01*
X898347Y2551684D01*
X907948Y2546451D01*
X918210Y2542641D01*
X928878Y2540304D01*
G37*
G36*
X552450Y2539492D02*
G01*
X583844Y2539492D01*
X595122Y2540304D01*
X605790Y2542641D01*
X616051Y2546451D01*
X625652Y2551684D01*
X634441Y2558237D01*
X642162Y2565958D01*
X648716Y2574747D01*
X653948Y2584348D01*
X657758Y2594610D01*
X660095Y2605278D01*
X660908Y2616555D01*
X660908Y2711450D01*
X552450Y2711450D01*
G37*

%LPD*%
D10*
X507994Y2819400D02*
G01*
X507994Y2374900D01*
X380994Y2247900D01*
X1015994Y2819400D02*
G01*
X507994Y2819400D01*
X507994Y419811D02*
G01*
X380994Y546811D01*
X380994Y787400D01*
X507994Y419811D02*
G01*
X507994Y546125D01*
X507994Y228600D02*
G01*
X507994Y419811D01*
X1015994Y228600D02*
G01*
X1015994Y546125D01*
X1015994Y546125D02*
G01*
X507994Y546125D01*
X761994Y1130300D02*
G01*
X800094Y1130300D01*
X1142994Y787400D01*
X761994Y1892300D02*
G01*
X787394Y1892300D01*
X1142994Y2247900D01*
D11*
G01*
X508000Y2819400D03*
G01*
X1016000Y2819400D03*
G01*
X508000Y228600D03*
G01*
X1016000Y228600D03*
D12*
G01*
X381000Y2247900D03*
G01*
X1143000Y2247900D03*
G01*
X381000Y787400D03*
G01*
X1143000Y787400D03*
D13*
G01*
X762000Y1130300D03*
G01*
X762000Y1892300D03*
M02*
